/* XPM */
static char * icon_xpm[] = {
"41 50 65 1",
" 	c None",
".	c #131216",
"+	c #EFC7C2",
"@	c #A890C6",
"#	c #8D5C4D",
"$	c #4A4A55",
"%	c #532A2E",
"&	c #1F1C24",
"*	c #FEEEFC",
"=	c #10103A",
"-	c #BE8AFA",
";	c #413D49",
">	c #9961CD",
",	c #521DAA",
"'	c #5A536C",
")	c #C18E76",
"!	c #A26D5E",
"~	c #FEE3F3",
"{	c #32238B",
"]	c #06055D",
"^	c #6B4F98",
"/	c #3F1091",
"(	c #E9B4BD",
"_	c #3E2226",
":	c #67278A",
"<	c #31303C",
"[	c #7D6B7B",
"}	c #F4C2EF",
"|	c #110981",
"1	c #D6A2C8",
"2	c #936E81",
"3	c #9254A5",
"4	c #D795FE",
"5	c #7E4B2E",
"6	c #5A1E82",
"7	c #232055",
"8	c #E0A8A9",
"9	c #A57281",
"0	c #694A5E",
"a	c #2E0E95",
"b	c #6F6899",
"c	c #FBD1F5",
"d	c #6E5D6E",
"e	c #27262F",
"f	c #D8B2F6",
"g	c #713C2F",
"h	c #403243",
"i	c #8D5E6E",
"j	c #CA9398",
"k	c #403E64",
"l	c #5B3A3E",
"m	c #BA78DE",
"n	c #917EC5",
"o	c #D6A1A9",
"p	c #F3B3FA",
"q	c #B37F8D",
"r	c #6332A9",
"s	c #341C1B",
"t	c #271213",
"u	c #784F5D",
"v	c #240F93",
"w	c #B17E68",
"x	c #5D3C5D",
"y	c #BCA4EC",
"z	c #FEFAFD",
"                   ..                    ",
"                   &e                    ",
"                  &<;.                   ",
"                  .;;&                   ",
"                  &$;&                   ",
"                  &$$e                   ",
"                  <$$<                   ",
"                 .<$$<&                  ",
"                 .$$$;.                  ",
"                 .$$$;e                  ",
"                .e$$$;e.                 ",
"                &e$$$$<&                 ",
"                &<$;;;<&                 ",
"                ..7=77&.                 ",
"               ..=]||]]=.                ",
"           &.  &.]]|||]=.   &.           ",
"           ee  &e=]]||]=e.  e.           ",
"           <e..e&]]]||]7e7. <&           ",
"           ee.eee=]]||]7<he.<e           ",
"           <<e<e<=]]||]7ekk&<e           ",
"           <<<<ee=]]||]<<k'k;&           ",
"           <kk<e<7]||||<;kd'$e           ",
"           <kk<e<7]]||vk;<b'$e           ",
"          .<$<ee;7]|||7$$<'b';&          ",
"         .ek$<7e;<]|||{'$<$b''e          ",
"         &<kke&e;<||vvkd'<7<'b'&         ",
"        &<k<<e<e;;=|vv'b';e&kbbk.        ",
"       .&<;e&h<h;;{|v{d[d$$k<bnbe        ",
"       .<hke&;;l;$hvvrb[d'[dk[nn'7       ",
"      .<hk;_sl[[lhavv{k2dd@['n@nn$.      ",
"     t&hkxx_s0)9lhavaa{nd[j['@@@nne      ",
"     &hl$0xh_0@90raa/arji[on'@yy@@d&     ",
"    s_hx00x%_ujqu0a///ry22o2d@yyy@n^.    ",
"   t_hl000g%_0oq#3//6/r899(@uyy}fy@2ht   ",
"  ts_hxx0ugg%#o)ii,,66^(qw})iy}}ffy-is   ",
"  _%lxuuu3ug%#8j!9,,:63cjq}j2fccff}y9xt  ",
" sllx0uii#ug%i8j!qr:::>+8jco9p}c}}}f@i%t ",
" sgl0uuii#35g!(ow43rrgq~(j~8q}c~cccc1qi_ ",
"_%x00ii2!i!5g!+8)8>333-*+8~()cz*~*ccp1@us",
"_%%%%llu9qqi5w+(ocm33>8z~(z+)c**+)w2iu0xs",
"      %5qj19#j*c+zfmmmczz+zcj~zz+'       ",
"      g#9jjw!8z~~zc444~zz~z~)+++(#       ",
"           #w(z**z~ppp~z*~z*)2[#'g       ",
"            q+z*~z*}p}c*c*z*)            ",
"            w}zz~}ccc}}p(~z*j            ",
"            w(zz~cc~~c}18*z~)            ",
"            !8zz~}c    88~z~w            ",
"            #j**}(}    jj+~+!            ",
"            5!j8jo     )w))w5            ",
"            g5#!)j      !##5             "};
